# xmcd CD database file
#
# Track frame offsets:
#	150
#	25293
#	47620
#	66913
#	91820
#	113238
#	132585
#	161540
#	191938
#	214280
#	237990
#	269565
#
# Disc length: 3832 seconds
#
# Revision: 0
# Processed by: cddbd v1.5.1PL0 Copyright (c) Steve Scherf et al.
# Submitted via: CDex 1.51
#
DISCID=b50ef60c
DTITLE=MARK WHITFIELD and JK - SOUL CONVERSATION
DYEAR=1900
DGENRE=Jazz
TTITLE0=WHATEVER IT TAKES
TTITLE1=TALK TO ME
TTITLE2=REFLECTIONS OF YOU
TTITLE3=MIAMI SUNSET
TTITLE4=VISIONS
TTITLE5=HAND TO MOUTH
TTITLE6=SECRETS
TTITLE7=IN THE BACKSEAT
TTITLE8=69TH STREET
TTITLE9=ON THE EDGE
TTITLE10=UNZIPPED
TTITLE11=WHATEVER IT TAKES(DAVE'S RIDING MIX)
EXTD=
EXTT0=
EXTT1=
EXTT2=
EXTT3=
EXTT4=
EXTT5=
EXTT6=
EXTT7=
EXTT8=
EXTT9=
EXTT10=
EXTT11=
PLAYORDER=
